<?xml version="1.0" standalone="no"?>
<!DOCTYPE svg PUBLIC "-//W3C//DTD SVG 20010904//EN"
 "http://www.w3.org/TR/2001/REC-SVG-20010904/DTD/svg10.dtd">
<svg version="1.0" xmlns="http://www.w3.org/2000/svg"
 width="200.000000pt" height="200.000000pt" viewBox="0 0 200.000000 200.000000"
 preserveAspectRatio="xMidYMid meet">

<g transform="translate(0.000000,200.000000) scale(0.100000,-0.100000)"
fill="#000000" stroke="none">
<path d="M877 1885 c-52 -18 -85 -51 -97 -97 -28 -103 68 -206 171 -183 71 16
129 105 113 172 -21 85 -108 136 -187 108z m82 -70 c48 -24 56 -81 16 -120
-48 -49 -135 -15 -135 52 1 31 15 54 45 71 27 15 41 15 74 -3z"/>
<path d="M1230 1672 c-99 -50 -107 -195 -13 -253 47 -29 131 -23 169 12 41 38
57 77 51 126 -6 57 -30 91 -80 114 -52 23 -82 24 -127 1z m117 -74 c44 -41 22
-120 -37 -133 -61 -13 -113 50 -89 107 6 16 19 33 28 38 28 16 74 11 98 -12z"/>
<path d="M482 1650 c-95 -58 -95 -192 0 -250 91 -55 218 17 218 124 0 111
-125 183 -218 126z m99 -50 c22 0 49 -42 49 -75 0 -61 -63 -95 -120 -65 -30
16 -42 67 -24 101 16 31 49 51 72 43 8 -2 18 -4 23 -4z"/>
<path d="M962 1508 c-20 -20 -14 -66 9 -79 33 -17 69 3 69 39 0 33 -16 52 -45
52 -12 0 -26 -5 -33 -12z"/>
<path d="M812 1498 c-15 -15 -15 -51 0 -66 7 -7 25 -12 40 -12 36 0 56 36 39
69 -13 23 -59 29 -79 9z"/>
<path d="M1054 1390 c-30 -12 -37 -39 -19 -66 17 -27 56 -32 75 -10 29 36 -13
93 -56 76z"/>
<path d="M747 1372 c-22 -24 -21 -45 1 -65 23 -21 46 -22 66 -1 30 30 9 84
-33 84 -10 0 -25 -8 -34 -18z"/>
<path d="M978 1259 c-25 -14 -24 -65 1 -79 31 -16 49 -12 67 15 15 23 15 27 0
50 -17 26 -40 31 -68 14z"/>
<path d="M1233 1254 c-52 -26 -76 -74 -71 -140 4 -42 11 -61 33 -84 73 -77
189 -60 237 33 63 125 -71 254 -199 191z m106 -59 c71 -36 45 -145 -35 -145
-41 0 -72 26 -80 67 -5 27 -1 37 24 63 34 34 50 37 91 15z"/>
<path d="M483 1240 c-109 -66 -72 -243 57 -265 121 -20 212 119 145 221 -40
62 -138 83 -202 44z m132 -65 c35 -34 34 -86 -1 -114 -45 -35 -96 -24 -122 26
-18 34 -14 52 17 84 36 36 73 37 106 4z"/>
<path d="M822 1248 c-32 -32 5 -92 49 -81 29 8 44 45 30 72 -13 23 -59 29 -79
9z"/>
<path d="M875 1032 c-98 -46 -112 -168 -29 -242 29 -25 43 -30 85 -30 27 0 63
7 79 15 40 21 70 74 70 126 0 110 -106 177 -205 131z m106 -65 c20 -15 39 -51
39 -72 0 -26 -55 -75 -85 -75 -63 0 -98 89 -53 137 24 25 72 30 99 10z"/>
<path d="M840 595 c-15 -18 -5 -35 20 -35 10 0 22 5 25 10 7 11 -12 40 -25 40
-4 0 -13 -7 -20 -15z"/>
<path d="M1026 589 c-20 -16 -26 -29 -26 -60 0 -35 -3 -39 -25 -39 -16 0 -25
-6 -25 -15 0 -9 9 -15 25 -15 l25 0 0 -125 c0 -104 2 -125 15 -125 13 0 15 21
15 125 l0 125 45 0 c33 0 45 4 45 15 0 11 -12 15 -45 15 -43 0 -45 1 -45 29 0
40 25 63 66 59 38 -3 55 9 34 22 -26 16 -76 11 -104 -11z"/>
<path d="M1211 591 c-12 -12 -24 -39 -27 -61 -6 -34 -10 -40 -30 -40 -15 0
-24 -6 -24 -15 0 -9 9 -15 25 -15 l25 0 0 -125 c0 -118 1 -125 20 -125 19 0
20 7 20 125 l0 125 45 0 c33 0 45 4 45 15 0 11 -12 15 -45 15 -44 0 -45 0 -45
34 0 44 20 60 66 53 29 -5 35 -3 32 11 -5 27 -81 29 -107 3z"/>
<path d="M516 575 c-106 -38 -155 -156 -107 -261 34 -75 102 -109 206 -102 36
2 73 11 89 21 24 16 26 22 26 92 0 60 -3 75 -15 75 -12 0 -15 -14 -15 -66 0
-65 0 -65 -35 -80 -52 -22 -112 -18 -160 11 -103 60 -100 208 5 269 44 26 126
27 164 2 15 -9 35 -15 43 -12 14 6 14 8 -1 25 -35 38 -130 51 -200 26z"/>
<path d="M840 350 c0 -133 1 -140 20 -140 19 0 20 7 20 140 0 133 -1 140 -20
140 -19 0 -20 -7 -20 -140z"/>
<path d="M1323 478 c3 -7 30 -68 61 -135 31 -67 56 -131 56 -141 0 -24 -44
-72 -65 -72 -9 0 -26 5 -37 11 -16 8 -22 8 -29 -2 -18 -29 58 -49 104 -28 30
13 38 27 104 173 99 217 95 206 75 206 -13 0 -32 -32 -72 -120 -29 -66 -54
-120 -55 -120 -1 0 -26 54 -55 120 -42 93 -58 120 -73 120 -11 0 -17 -5 -14
-12z"/>
</g>
</svg>
